<svg width="18" height="18" viewBox="0 0 18 18" fill="none" xmlns="http://www.w3.org/2000/svg">
<path fill-rule="evenodd" clip-rule="evenodd" d="M12.2102 9.16475C12.4299 9.38442 12.4299 9.74058 12.2102 9.96025L8.83525 13.3352C8.72976 13.4407 8.58668 13.5 8.4375 13.5C8.28832 13.5 8.14524 13.4407 8.03975 13.3352L6.35225 11.6477C6.13258 11.4281 6.13258 11.0719 6.35225 10.8523C6.57192 10.6326 6.92808 10.6326 7.14775 10.8523L8.4375 12.142L11.4148 9.16475C11.6344 8.94508 11.9906 8.94508 12.2102 9.16475Z" fill="#667085"/>
<path d="M9 1.125C10.5533 1.125 11.8125 2.3842 11.8125 3.9375V4.5H6.1875V3.9375C6.1875 2.3842 7.4467 1.125 9 1.125ZM12.9375 4.5V3.9375C12.9375 1.76288 11.1746 0 9 0C6.82538 0 5.0625 1.76288 5.0625 3.9375V4.5H1.125V15.75C1.125 16.9926 2.13236 18 3.375 18H14.625C15.8676 18 16.875 16.9926 16.875 15.75V4.5H12.9375ZM2.25 5.625H15.75V15.75C15.75 16.3713 15.2463 16.875 14.625 16.875H3.375C2.75368 16.875 2.25 16.3713 2.25 15.75V5.625Z" fill="#667085"/>
</svg>
