<svg width="18" height="18" viewBox="0 0 18 18" fill="none" xmlns="http://www.w3.org/2000/svg">
<path d="M9.57933 1.14633C9.38701 1.13215 9.19378 1.125 9 1.125V0C9.22145 0 9.44229 0.00816974 9.66208 0.0243812L9.57933 1.14633ZM11.8342 1.65268C11.4734 1.5135 11.1028 1.40108 10.7254 1.31634L10.9719 0.21868C11.4032 0.31552 11.8267 0.443999 12.2391 0.603061L11.8342 1.65268ZM13.3751 2.45218C13.214 2.34452 13.0494 2.24311 12.8816 2.14806L13.4361 1.16921C13.6279 1.27785 13.816 1.39374 14.0001 1.51677C14.1843 1.6398 14.3633 1.76929 14.5371 1.90488L13.845 2.79177C13.6929 2.67313 13.5362 2.55983 13.3751 2.45218ZM15.4385 4.46551C15.2158 4.14933 14.9701 3.84996 14.7034 3.56986L15.5182 2.79414C15.823 3.11424 16.1038 3.45637 16.3583 3.81772L15.4385 4.46551ZM16.2756 5.98637C16.2014 5.80734 16.1208 5.63155 16.0341 5.4593L17.039 4.9535C17.1381 5.15036 17.2302 5.35126 17.3149 5.55585C17.3997 5.76044 17.4766 5.96759 17.5458 6.17686L16.4775 6.52976C16.4171 6.34666 16.3497 6.1654 16.2756 5.98637ZM16.8726 8.80674C16.8631 8.42012 16.8252 8.03471 16.7591 7.65367L17.8675 7.46135C17.9431 7.89682 17.9864 8.33728 17.9973 8.77913L16.8726 8.80674ZM16.7237 10.5363C16.7615 10.3463 16.7922 10.1554 16.8158 9.96398L17.9323 10.1017C17.9053 10.3204 17.8703 10.5386 17.8271 10.7558C17.7839 10.973 17.7328 11.188 17.674 11.4004L16.5897 11.1004C16.6412 10.9145 16.6859 10.7264 16.7237 10.5363ZM15.6532 13.2131C15.8601 12.8864 16.0427 12.5448 16.1994 12.1913L17.2279 12.6472C17.0488 13.0512 16.8401 13.4416 16.6037 13.815L15.6532 13.2131ZM14.5685 14.5685C14.7055 14.4314 14.8371 14.2898 14.963 14.1437L15.8149 14.8786C15.6709 15.0454 15.5206 15.2074 15.364 15.364L14.5685 14.5685Z" fill="#667085"/>
<path d="M9 1.125C7.70495 1.125 6.42989 1.44439 5.28775 2.05487C4.14562 2.66535 3.17167 3.54809 2.45218 4.62488C1.73269 5.70168 1.28986 6.9393 1.16292 8.22811C1.03599 9.51693 1.22886 10.8172 1.72445 12.0136C2.22005 13.2101 3.00307 14.2659 4.00415 15.0875C5.00524 15.909 6.1935 16.471 7.46367 16.7237C8.73383 16.9763 10.0467 16.9118 11.286 16.5359C12.5253 16.16 13.6527 15.4842 14.5685 14.5685L15.364 15.364C14.3174 16.4105 13.0289 17.1828 11.6126 17.6125C10.1962 18.0421 8.69581 18.1158 7.24419 17.8271C5.79257 17.5383 4.43456 16.896 3.29046 15.9571C2.14636 15.0182 1.25148 13.8115 0.685086 12.4442C0.118693 11.0768 -0.101731 9.59078 0.0433397 8.11785C0.188411 6.64491 0.694499 5.23049 1.51678 3.99987C2.33905 2.76924 3.45214 1.7604 4.75743 1.06271C6.06273 0.365014 7.51994 0 9 0V1.125Z" fill="#667085"/>
<path d="M8.4375 3.375C8.74816 3.375 9 3.62684 9 3.9375V9.79857L12.6541 11.8866C12.9238 12.0407 13.0175 12.3844 12.8634 12.6541C12.7093 12.9238 12.3657 13.0175 12.0959 12.8634L8.15842 10.6134C7.98316 10.5132 7.875 10.3269 7.875 10.125V3.9375C7.875 3.62684 8.12684 3.375 8.4375 3.375Z" fill="#667085"/>
</svg>
