<svg width="18" height="18" viewBox="0 0 18 18" fill="none" xmlns="http://www.w3.org/2000/svg">
<path fill-rule="evenodd" clip-rule="evenodd" d="M6.75 3.9375C6.75 3.00552 7.50552 2.25 8.4375 2.25H9.5625C10.4945 2.25 11.25 3.00552 11.25 3.9375V5.0625C11.25 5.99448 10.4945 6.75 9.5625 6.75V7.875H15.75C16.0607 7.875 16.3125 8.12684 16.3125 8.4375V9.5625C16.3125 9.87316 16.0607 10.125 15.75 10.125C15.4393 10.125 15.1875 9.87316 15.1875 9.5625V9H9.5625V9.5625C9.5625 9.87316 9.31066 10.125 9 10.125C8.68934 10.125 8.4375 9.87316 8.4375 9.5625V9H2.8125V9.5625C2.8125 9.87316 2.56066 10.125 2.25 10.125C1.93934 10.125 1.6875 9.87316 1.6875 9.5625V8.4375C1.6875 8.12684 1.93934 7.875 2.25 7.875H8.4375V6.75C7.50552 6.75 6.75 5.99448 6.75 5.0625V3.9375ZM9.5625 5.625C9.87316 5.625 10.125 5.37316 10.125 5.0625V3.9375C10.125 3.62684 9.87316 3.375 9.5625 3.375H8.4375C8.12684 3.375 7.875 3.62684 7.875 3.9375V5.0625C7.875 5.37316 8.12684 5.625 8.4375 5.625H9.5625ZM0 12.9375C0 12.0055 0.75552 11.25 1.6875 11.25H2.8125C3.74448 11.25 4.5 12.0055 4.5 12.9375V14.0625C4.5 14.9945 3.74448 15.75 2.8125 15.75H1.6875C0.755519 15.75 0 14.9945 0 14.0625V12.9375ZM1.6875 12.375C1.37684 12.375 1.125 12.6268 1.125 12.9375V14.0625C1.125 14.3732 1.37684 14.625 1.6875 14.625H2.8125C3.12316 14.625 3.375 14.3732 3.375 14.0625V12.9375C3.375 12.6268 3.12316 12.375 2.8125 12.375H1.6875ZM6.75 12.9375C6.75 12.0055 7.50552 11.25 8.4375 11.25H9.5625C10.4945 11.25 11.25 12.0055 11.25 12.9375V14.0625C11.25 14.9945 10.4945 15.75 9.5625 15.75H8.4375C7.50552 15.75 6.75 14.9945 6.75 14.0625V12.9375ZM8.4375 12.375C8.12684 12.375 7.875 12.6268 7.875 12.9375V14.0625C7.875 14.3732 8.12684 14.625 8.4375 14.625H9.5625C9.87316 14.625 10.125 14.3732 10.125 14.0625V12.9375C10.125 12.6268 9.87316 12.375 9.5625 12.375H8.4375ZM13.5 12.9375C13.5 12.0055 14.2555 11.25 15.1875 11.25H16.3125C17.2445 11.25 18 12.0055 18 12.9375V14.0625C18 14.9945 17.2445 15.75 16.3125 15.75H15.1875C14.2555 15.75 13.5 14.9945 13.5 14.0625V12.9375ZM15.1875 12.375C14.8768 12.375 14.625 12.6268 14.625 12.9375V14.0625C14.625 14.3732 14.8768 14.625 15.1875 14.625H16.3125C16.6232 14.625 16.875 14.3732 16.875 14.0625V12.9375C16.875 12.6268 16.6232 12.375 16.3125 12.375H15.1875Z" fill="#667085"/>
</svg>
