<svg width="18" height="18" viewBox="0 0 18 18" fill="none" xmlns="http://www.w3.org/2000/svg">
<path d="M9.00004 5.34849C6.98338 5.34849 5.34856 6.98331 5.34856 8.99997C5.34856 11.0166 6.98338 12.6515 9.00004 12.6515C11.0167 12.6515 12.6515 11.0166 12.6515 8.99997C12.6515 6.98331 11.0167 5.34849 9.00004 5.34849ZM6.47356 8.99997C6.47356 7.60463 7.6047 6.47349 9.00004 6.47349C10.3954 6.47349 11.5265 7.60463 11.5265 8.99997C11.5265 10.3953 10.3954 11.5265 9.00004 11.5265C7.6047 11.5265 6.47356 10.3953 6.47356 8.99997Z" fill="#667085"/>
<path d="M11.021 1.5113C10.4271 -0.503767 7.57291 -0.503765 6.97897 1.5113L6.87339 1.86952C6.69652 2.46959 6.01111 2.75349 5.46173 2.45424L5.13377 2.27561C3.28893 1.27072 1.27072 3.28894 2.27561 5.13378L2.45424 5.46173C2.75349 6.01111 2.46959 6.69652 1.86952 6.87339L1.5113 6.97897C-0.503767 7.57291 -0.503765 10.4271 1.5113 11.021L1.86952 11.1266C2.46959 11.3035 2.75349 11.9889 2.45424 12.5383L2.27561 12.8662C1.27072 14.7111 3.28893 16.7293 5.13377 15.7244L5.46173 15.5458C6.01111 15.2465 6.69652 15.5304 6.87339 16.1305L6.97897 16.4887C7.57291 18.5038 10.4271 18.5038 11.021 16.4887L11.1266 16.1305C11.3035 15.5304 11.9889 15.2465 12.5383 15.5458L12.8662 15.7244C14.7111 16.7293 16.7293 14.7111 15.7244 12.8662L15.5458 12.5383C15.2465 11.9889 15.5304 11.3035 16.1305 11.1266L16.4887 11.021C18.5038 10.4271 18.5038 7.5729 16.4887 6.97897L16.1305 6.87339C15.5304 6.69652 15.2465 6.01111 15.5458 5.46173L15.7244 5.13377C16.7293 3.28893 14.7111 1.27072 12.8662 2.27561L12.5383 2.45424C11.9889 2.75349 11.3035 2.46959 11.1266 1.86952L11.021 1.5113ZM8.05807 1.82936C8.33488 0.890213 9.66512 0.890213 9.94193 1.82936L10.0475 2.18758C10.427 3.47512 11.8976 4.08427 13.0764 3.44219L13.4044 3.26355C14.2642 2.79521 15.2048 3.73583 14.7364 4.59564L14.5578 4.92359C13.9157 6.10237 14.5249 7.57299 15.8124 7.95249L16.1706 8.05807C17.1098 8.33488 17.1098 9.66512 16.1706 9.94193L15.8124 10.0475C14.5249 10.427 13.9157 11.8976 14.5578 13.0764L14.7364 13.4044C15.2048 14.2642 14.2642 15.2048 13.4044 14.7365L13.0764 14.5578C11.8976 13.9157 10.427 14.5249 10.0475 15.8124L9.94193 16.1706C9.66512 17.1098 8.33488 17.1098 8.05807 16.1706L7.95249 15.8124C7.57299 14.5249 6.10237 13.9157 4.92359 14.5578L4.59564 14.7365C3.73583 15.2048 2.79521 14.2642 3.26355 13.4044L3.44219 13.0764C4.08427 11.8976 3.47512 10.427 2.18758 10.0475L1.82936 9.94193C0.890213 9.66512 0.890213 8.33488 1.82936 8.05807L2.18758 7.95249C3.47512 7.57299 4.08427 6.10237 3.44219 4.92359L3.26355 4.59564C2.79521 3.73583 3.73583 2.79521 4.59564 3.26355L4.92359 3.44219C6.10237 4.08427 7.57299 3.47512 7.95249 2.18758L8.05807 1.82936Z" fill="#667085"/>
</svg>
