<svg width="18" height="18" viewBox="0 0 18 18" fill="none" xmlns="http://www.w3.org/2000/svg">
<path fill-rule="evenodd" clip-rule="evenodd" d="M8.20451 1.68754C8.64385 1.2482 9.35616 1.2482 9.79549 1.68754L12.375 4.26704V2.81254C12.375 2.50188 12.6268 2.25004 12.9375 2.25004H14.0625C14.3732 2.25004 14.625 2.50188 14.625 2.81254V6.51704L17.2727 9.16479C17.4924 9.38446 17.4924 9.74062 17.2727 9.96029C17.0531 10.18 16.6969 10.18 16.4773 9.96029L15.75 9.23303V15.1875C15.75 16.1195 14.9945 16.875 14.0625 16.875H3.9375C3.00552 16.875 2.25 16.1195 2.25 15.1875V9.23303L1.52275 9.96029C1.30308 10.18 0.946922 10.18 0.727252 9.96029C0.507583 9.74062 0.507583 9.38446 0.727252 9.16479L8.20451 1.68754ZM14.625 8.10803L9 2.48303L3.375 8.10803V15.1875C3.375 15.4982 3.62684 15.75 3.9375 15.75H14.0625C14.3732 15.75 14.625 15.4982 14.625 15.1875V8.10803Z" fill="#667085"/>
</svg>
