<svg width="48" height="49" viewBox="0 0 48 49" fill="none" xmlns="http://www.w3.org/2000/svg">
<path fill-rule="evenodd" clip-rule="evenodd" d="M31.0607 18.9393C31.6464 19.5251 31.6464 20.4749 31.0607 21.0607L22.0607 30.0607C21.7794 30.342 21.3978 30.5 21 30.5C20.6022 30.5 20.2206 30.342 19.9393 30.0607L15.4393 25.5607C14.8536 24.9749 14.8536 24.0251 15.4393 23.4393C16.0251 22.8536 16.9749 22.8536 17.5607 23.4393L21 26.8787L28.9393 18.9393C29.5251 18.3536 30.4749 18.3536 31.0607 18.9393Z" fill="#128760"/>
<path d="M30.8188 8.03799L28.0557 5.2083L30.2021 3.11239L32.0677 5.0229L34.7377 4.9911C39.6057 4.93312 43.5669 8.89427 43.5089 13.7623L43.4771 16.4323L45.3876 18.2979C48.8708 21.699 48.8708 27.301 45.3876 30.7021L43.4771 32.5677L43.5089 35.2377C43.5669 40.1057 39.6057 44.0669 34.7377 44.0089L32.0677 43.9771L30.2021 45.8876C26.801 49.3708 21.199 49.3708 17.7979 45.8876L15.9323 43.9771L13.2623 44.0089C8.39427 44.0669 4.43312 40.1057 4.4911 35.2377L4.5229 32.5677L2.61239 30.7021C-0.870798 27.301 -0.870798 21.699 2.61239 18.2979L4.5229 16.4323L4.4911 13.7623C4.43312 8.89426 8.39426 4.93312 13.2623 4.9911L15.9323 5.0229L17.7979 3.11239C21.199 -0.370798 26.801 -0.370798 30.2021 3.11239L28.0557 5.2083C25.8316 2.93057 22.1684 2.93057 19.9443 5.2083L17.1812 8.03799L13.2265 7.99089C10.0432 7.95297 7.45297 10.5432 7.49089 13.7265L7.53799 17.6812L4.7083 20.4443C2.43057 22.6684 2.43057 26.3316 4.7083 28.5557L7.53799 31.3188L7.49089 35.2735C7.45297 38.4568 10.0432 41.047 13.2265 41.0091L17.1812 40.962L19.9443 43.7917C22.1684 46.0694 25.8316 46.0694 28.0557 43.7917L30.8188 40.962L34.7735 41.0091C37.9568 41.047 40.547 38.4568 40.5091 35.2735L40.462 31.3188L43.2917 28.5557C45.5694 26.3316 45.5694 22.6684 43.2917 20.4443L40.462 17.6812L40.5091 13.7265C40.547 10.5432 37.9568 7.95297 34.7735 7.99089L30.8188 8.03799Z" fill="#128760"/>
</svg>
